# Blender v3.3.0 OBJ File: 'dE.blend'
# www.blender.org
mtllib classicalShield.mtl
o classicalShield_Plane.002
v -9.488062 -4.945587 13.668666
v -6.532022 -5.990514 15.046945
v -8.239974 -1.922578 14.686440
v -5.099726 -3.262728 15.261452
v -4.742691 -7.456771 15.349425
v -3.310394 -4.728986 15.563932
v -3.390384 -8.676998 16.955864
v -1.609692 -5.319477 17.228966
v -1.230428 -9.013163 17.600475
v 0.448283 -5.613001 17.895191
v 2.387329 -8.824636 18.305908
v 3.563068 -5.355273 17.243057
v 6.187949 -8.493287 14.659127
v 7.410972 -4.994036 14.575663
vt 0.000000 0.000000
vt 1.000000 0.000000
vt 1.000000 1.000000
vt 0.000000 1.000000
vt 1.000000 0.000000
vt 1.000000 1.000000
vt 1.000000 0.000000
vt 1.000000 1.000000
vt 1.000000 0.000000
vt 1.000000 1.000000
vt 1.000000 0.000000
vt 1.000000 1.000000
vt 1.000000 0.000000
vt 1.000000 1.000000
vn -0.3231 -0.0519 0.9449
vn -0.1611 0.0070 0.9869
vn -0.6244 0.2710 0.7326
vn -0.2870 0.0666 0.9556
vn -0.0157 0.1175 0.9929
vn 0.6389 -0.0943 0.7635
usemtl None
s off
f 1/1/1 2/2/1 4/3/1 3/4/1
f 4/3/2 2/2/2 5/5/2 6/6/2
f 6/6/3 5/5/3 7/7/3 8/8/3
f 8/8/4 7/7/4 9/9/4 10/10/4
f 10/10/5 9/9/5 11/11/5 12/12/5
f 12/12/6 11/11/6 13/13/6 14/14/6
