# Blender v3.3.0 OBJ File: 'dE.blend'
# www.blender.org
mtllib filmShield.mtl
o filmShield_Plane.001
v 0.319520 6.182348 17.876402
v 10.102744 3.915610 14.695808
v 1.748794 8.770120 17.036228
v 10.291356 7.998446 14.097985
v 6.003750 5.181596 16.644655
v 2.109312 3.987087 17.493904
v 10.930372 4.621377 13.307738
v 10.838971 6.162086 13.088935
vt 0.000000 0.000000
vt 0.250000 0.000000
vt 0.500000 0.000000
vt 1.000000 0.000000
vt 1.000000 1.000000
vt 0.000000 1.000000
vt 1.000000 0.000000
vt 1.000000 1.000000
vn 0.3292 0.1858 0.9258
vn 0.8769 0.0542 0.4775
usemtl None
s off
f 1/1/1 6/2/1 5/3/1 2/4/1 4/5/1 3/6/1
f 4/5/2 2/4/2 7/7/2 8/8/2
