# Blender v3.3.0 OBJ File: 'dE.blend'
# www.blender.org
mtllib miscShield.mtl
o miscShield_Plane.003
v 3.331761 -4.147938 17.253767
v 6.654286 -4.217188 16.374096
v 3.617954 -1.842358 16.861164
v 6.733225 -1.640963 16.053925
v 11.023634 -3.652103 12.620488
v 11.321222 -0.844401 12.291412
vt 0.000000 0.000000
vt 1.000000 0.000000
vt 1.000000 1.000000
vt 0.000000 1.000000
vt 1.000000 0.000000
vt 1.000000 1.000000
vn 0.2493 0.1216 0.9608
vn 0.6377 0.0481 0.7687
usemtl None
s off
f 1/1/1 2/2/1 4/3/1 3/4/1
f 4/3/2 2/2/2 5/5/2 6/6/2
