# Blender v3.3.0 OBJ File: 'dE.blend'
# www.blender.org
mtllib rockShield.mtl
o rockShield_Plane
v -8.866501 4.854117 15.380612
v -1.363904 5.840671 17.285593
v -9.813129 8.709149 13.383542
v -0.364190 10.100018 17.147892
v -9.767754 5.289877 12.967735
v -10.306917 7.485557 11.830280
v -0.417055 6.627346 16.874201
v 0.242662 9.438115 16.783329
vt 0.000000 0.000000
vt 1.000000 0.000000
vt 1.000000 1.000000
vt 0.000000 1.000000
vt 0.000000 1.000000
vt 0.000000 0.000000
vt 1.000000 0.000000
vt 1.000000 1.000000
vn -0.3381 0.2415 0.9096
vn -0.9386 -0.0539 0.3408
vn 0.4504 -0.0770 0.8895
usemtl None
s off
f 1/1/1 2/2/1 4/3/1 3/4/1
f 1/1/2 3/4/2 6/5/2 5/6/2
f 4/3/3 2/2/3 7/7/3 8/8/3
