# WaveFront *.obj file (generated by Cinema 4D)

v -8.703599 2.247745 -1.532210
v -8.703599 9.575547 -1.532210
v -4.798314 2.247745 0.019250
v -4.798314 9.575547 0.019250
v -0.893028 2.247745 0.648491
v -0.893028 9.575547 0.648491
v 3.012258 2.247745 0.019250
v 3.012258 9.575547 0.019250
v 6.917544 2.247745 -1.532210
v 6.917544 9.575547 -1.532210
v 6.917544 2.247745 -1.199321
v 6.917544 9.575547 -1.199321
v 3.012258 2.247745 0.352139
v 3.012258 9.575547 0.352139
v -0.893028 2.247745 0.981380
v -0.893028 9.575547 0.981380
v -4.798314 2.247745 0.352139
v -4.798314 9.575547 0.352139
v -8.703599 2.247745 -1.199321
v -8.703599 9.575547 -1.199321
# 20 vertices

vn 0.369204 0.000000 -0.929348
vn 0.300752 0.000000 -0.953702
vn 0.230336 0.000000 -0.973111
vn 0.053631 0.000000 -0.998561
vn -0.053631 0.000000 -0.998561
vn -0.230336 0.000000 -0.973111
vn -0.300752 0.000000 -0.953702
vn -0.369204 0.000000 -0.929348
vn 1.000000 0.000000 0.000000
vn 0.999997 0.000000 0.000000
vn 0.369204 0.000000 0.929348
vn 0.369204 0.000000 0.929348
vn 0.300752 0.000000 0.953702
vn 0.230336 0.000000 0.973111
vn 0.053631 0.000000 0.998561
vn -0.053631 0.000000 0.998561
vn -0.230336 0.000000 0.973111
vn -0.300752 0.000000 0.953702
vn -0.369204 0.000000 0.929348
vn -1.000000 0.000000 0.000000
vn -0.999997 0.000000 0.000000
vn 0.000000 1.000000 0.000000
vn 0.000000 1.000000 0.000000
vn 0.000000 1.000000 0.000000
vn 0.000000 -1.000000 0.000000
vn 0.000000 -1.000000 0.000000
vn 0.000000 -1.000000 0.000000
vn -0.369204 0.000000 -0.929348
# 28 normals

vt 0.000000 0.000000 0.000000
vt 0.000000 1.000000 0.000000
vt 0.250000 1.000000 0.000000
vt 0.250000 0.000000 0.000000
vt 0.500000 1.000000 0.000000
vt 0.500000 0.000000 0.000000
vt 0.750000 1.000000 0.000000
vt 0.750000 0.000000 0.000000
vt 1.000000 1.000000 0.000000
vt 0.000000 1.000000 0.000000
vt -100000.000000 1.000000 0.000000
vt -0.000122 1.007812 0.007812
vt -7.999878 1.007812 65536.000000
vt -100000.000000 1.124998 65608.000000
vt -100000.000000 100001.000000 65848.000000
vt -100000.000000 100001.000000 72680.000000
vt -100000.000000 100001.000000 100000.000000
vt -100000.000000 100001.000000 -79358.000000
vt -100000.000000 100001.000000 -100000.000000
vt 1.000000 0.000000 0.000000
vt -100000.000000 100001.000000 72682.000000
vt -7.999878 1.124998 65536.000000
vt -0.000122 1.124998 0.007812
# 23 texture coordinates

o film_hull
usemtl default
f 1/1/1 2/2/1 4/3/2
f 3/4/3 4/3/2 6/5/4
f 5/6/5 6/5/4 8/7/6
f 7/8/7 8/7/6 10/9/8
f 9/1/9 10/2/10 12/9/9
f 11/1/11 12/2/12 14/3/13
f 13/4/14 14/3/13 16/5/15
f 15/6/16 16/5/15 18/7/17
f 17/8/18 18/7/17 20/9/19
f 19/1/20 20/2/21 2/9/20
f 2/1/22 20/2/23 18/3/24
f 4/4/24 18/3/24 16/5/24
f 6/6/24 16/5/24 14/7/24
f 8/8/24 14/7/24 12/9/22
f 19/1/25 1/2/26 3/3/27
f 17/4/27 3/3/27 5/5/27
f 15/6/27 5/5/27 7/7/27
f 13/8/27 7/7/27 9/9/25
f 1/1/1 4/3/2 3/4/3
f 3/4/3 6/5/4 5/6/5
f 5/6/5 8/7/6 7/8/7
f 7/8/7 10/9/8 9/20/28
f 9/1/9 12/9/9 11/20/10
f 11/1/11 14/3/13 13/4/14
f 13/4/14 16/5/15 15/6/16
f 15/6/16 18/7/17 17/8/18
f 17/8/18 20/9/19 19/20/19
f 19/1/20 2/9/20 1/20/21
f 2/1/22 18/3/24 4/4/24
f 4/4/24 16/5/24 6/6/24
f 6/6/24 14/7/24 8/8/24
f 8/8/24 12/9/22 10/20/23
f 19/1/25 3/3/27 17/4/27
f 17/4/27 5/5/27 15/6/27
f 15/6/27 7/7/27 13/8/27
f 13/8/27 9/9/25 11/20/26

