# WaveFront *.obj file (generated by Cinema 4D)

v -8.349550 2.247745 -1.532210
v -8.349550 9.575547 -1.532210
v -4.400848 2.247745 0.019250
v -4.400848 9.575547 0.019250
v -0.452147 2.247745 0.648491
v -0.452147 9.575547 0.648491
v 3.496554 2.247745 0.019250
v 3.496554 9.575547 0.019250
v 7.445255 2.247745 -1.532210
v 7.445255 9.575547 -1.532210
v 7.445255 2.247745 -1.199321
v 7.445255 9.575547 -1.199321
v 3.496554 2.247745 0.352139
v 3.496554 9.575547 0.352139
v -0.452147 2.247745 0.981380
v -0.452147 9.575547 0.981380
v -4.400848 2.247745 0.352139
v -4.400848 9.575547 0.352139
v -8.349550 2.247745 -1.199321
v -8.349550 9.575547 -1.199321
# 20 vertices

vn 0.365690 0.000000 -0.930737
vn 0.365689 0.000000 -0.930733
vn 0.297796 0.000000 -0.954629
vn 0.227993 0.000000 -0.973663
vn 0.053043 0.000000 -0.998592
vn -0.053043 0.000000 -0.998592
vn -0.227993 0.000000 -0.973663
vn -0.297796 0.000000 -0.954629
vn -0.365690 0.000000 -0.930737
vn 1.000000 0.000000 0.000000
vn 0.999997 0.000000 0.000000
vn 0.365690 0.000000 0.930737
vn 0.365689 0.000000 0.930733
vn 0.297796 0.000000 0.954629
vn 0.227993 0.000000 0.973663
vn 0.053043 0.000000 0.998592
vn -0.053043 0.000000 0.998592
vn -0.227993 0.000000 0.973663
vn -0.297796 0.000000 0.954629
vn -0.365690 0.000000 0.930737
vn -1.000000 0.000000 0.000000
vn -0.999997 0.000000 0.000000
vn 0.000000 1.000000 0.000000
vn 0.000000 0.999998 0.000000
vn 0.000000 1.000000 0.000000
vn 0.000000 -1.000000 0.000000
vn 0.000000 -0.999998 0.000000
vn 0.000000 -1.000000 0.000000
vn -0.365689 0.000000 -0.930733
vn -0.365689 0.000000 0.930733
vn 0.000000 0.999998 0.000000
vn 0.000000 -0.999998 0.000000
# 32 normals

vt 0.000000 0.000000 0.000000
vt 0.000000 1.000000 0.000000
vt 0.250000 1.000000 0.000000
vt 0.250000 0.000000 0.000000
vt 0.500000 1.000000 0.000000
vt 0.500000 0.000000 0.000000
vt 0.750000 1.000000 0.000000
vt 0.750000 0.000000 0.000000
vt 1.000000 1.000000 0.000000
vt -0.000122 1.007812 0.007812
vt -7.999878 1.007812 65536.000000
vt -100000.000000 1.124998 65608.000000
vt -100000.000000 100001.000000 65848.000000
vt -100000.000000 100001.000000 72680.000000
vt -100000.000000 100001.000000 100000.000000
vt -100000.000000 100001.000000 -79358.000000
vt -100000.000000 100001.000000 -100000.000000
vt 1.000000 0.000000 0.000000
vt -100000.000000 100001.000000 72682.000000
vt -7.999878 1.124998 65536.000000
vt -0.000122 1.124998 0.007812
vt -100000.000000 1.000000 0.000000
vt 0.000000 1.000000 0.000000
vt 100000.000000 32768.500000 -100000.000000
vt -100000.000000 -65535.000000 -100000.000000
# 25 texture coordinates

o rock_hull
usemtl default
f 1/1/1 2/2/2 4/3/3
f 3/4/4 4/3/3 6/5/5
f 5/6/6 6/5/5 8/7/7
f 7/8/8 8/7/7 10/9/9
f 9/1/10 10/2/11 12/9/10
f 11/1/12 12/2/13 14/3/14
f 13/4/15 14/3/14 16/5/16
f 15/6/17 16/5/16 18/7/18
f 17/8/19 18/7/18 20/9/20
f 19/1/21 20/2/22 2/9/21
f 2/1/23 20/2/24 18/3/25
f 4/4/25 18/3/25 16/5/25
f 6/6/25 16/5/25 14/7/25
f 8/8/25 14/7/25 12/9/23
f 19/1/26 1/2/27 3/3/28
f 17/4/28 3/3/28 5/5/28
f 15/6/28 5/5/28 7/7/28
f 13/8/28 7/7/28 9/9/26
f 1/1/1 4/3/3 3/4/4
f 3/4/4 6/5/5 5/6/6
f 5/6/6 8/7/7 7/8/8
f 7/8/8 10/9/9 9/18/29
f 9/1/10 12/9/10 11/18/11
f 11/1/12 14/3/14 13/4/15
f 13/4/15 16/5/16 15/6/17
f 15/6/17 18/7/18 17/8/19
f 17/8/19 20/9/20 19/18/30
f 19/1/21 2/9/21 1/18/22
f 2/1/23 18/3/25 4/4/25
f 4/4/25 16/5/25 6/6/25
f 6/6/25 14/7/25 8/8/25
f 8/8/25 12/9/23 10/18/31
f 19/1/26 3/3/28 17/4/28
f 17/4/28 5/5/28 15/6/28
f 15/6/28 7/7/28 13/8/28
f 13/8/28 9/9/26 11/18/32

